<svg width="60" height="61" viewBox="0 0 60 61" fill="none" xmlns="http://www.w3.org/2000/svg">
  <g clip-path="url(#clip0_13856_29979)">
  <path d="M30 0.682861C13.4573 0.682861 0 14.1402 0 30.6829C0 47.2255 13.4573 60.6829 30 60.6829C46.5427 60.6829 60 47.2255 60 30.6829C60 14.1402 46.5427 0.682861 30 0.682861Z" fill="#51C1BB"/>
  <path d="M45.2057 24.326L28.9555 40.5757C28.468 41.0633 27.8281 41.3086 27.1881 41.3086C26.5482 41.3086 25.9082 41.0633 25.4207 40.5757L17.2958 32.4509C16.3181 31.4736 16.3181 29.8934 17.2958 28.916C18.2732 27.9383 19.8529 27.9383 20.8307 28.916L27.1881 35.2735L41.6708 20.7912C42.6482 19.8134 44.2279 19.8134 45.2057 20.7912C46.183 21.7685 46.183 23.3483 45.2057 24.326Z" fill="#0F1016"/>
  </g>
  <defs>
  <clipPath id="clip0_13856_29979">
  <rect width="60" height="60" fill="white" transform="translate(0 0.682861)"/>
  </clipPath>
  </defs>
  </svg>
  